<svg width="345" height="499" viewBox="0 0 345 499" fill="none" xmlns="http://www.w3.org/2000/svg">
<rect width="345" height="499" rx="27" fill="#49682F"/>
<g clip-path="url(#clip0_314_1639)">
<path d="M269.199 29.2898L265.352 33.8693L265.532 27.8925L260 25.6442L265.732 23.9701L266.153 18.0002L269.516 22.9463L275.311 21.5074L271.657 26.2391L274.813 31.3098L269.199 29.2898Z" fill="white"/>
<path d="M324.74 56.5127V56.5047C327.167 60.034 330.067 63.3166 332.915 65.6084C327.275 68.875 321.364 70.5103 315.458 70.5103C309.551 70.5103 303.64 68.875 298 65.6084C298 65.6084 314.087 68.7875 324.74 56.5087V56.5127Z" fill="white"/>
<path d="M307.843 53.9304C306.874 53.5365 305.916 53.067 304.971 52.5179C304.971 52.5179 316.625 52.5935 319.871 45.2406L319.851 45.2048C321.491 47.99 323.739 50.7473 325.94 52.5179C324.995 53.067 324.033 53.5365 323.068 53.9304C323.068 53.9304 313.742 65.31 298 65.6084C301.531 62.7635 305.142 58.3987 307.843 53.9304Z" fill="white"/>
<path d="M311.509 44.4249C311.525 44.3971 311.537 44.3692 311.553 44.3453C310.782 44.0748 310.019 43.7207 309.269 43.287C309.269 43.287 309.324 43.279 309.42 43.2671C309.368 43.275 309.32 43.283 309.269 43.287C310.687 42.145 312.144 40.3068 313.126 38.5083C314.142 36.686 314.806 34.8677 315.453 33.0692L313.356 34.4738L314.039 32.0387L312.057 30.471L314.579 30.3716L315.453 28.0002L316.327 30.3716L318.849 30.471L316.867 32.0387L317.551 34.4738L315.453 33.0692C315.982 34.5374 316.526 36.0216 317.257 37.5057L317.205 37.4022C317.205 37.4022 314.758 42.0376 310.333 43.1039C310.023 43.1716 309.765 43.2153 309.582 43.2432C309.837 43.2074 310.091 43.1636 310.333 43.1039C312.264 42.6941 316.268 41.4607 317.59 38.1582L317.531 38.0388C317.614 38.198 317.697 38.3532 317.785 38.5123C318.766 40.3068 320.224 42.145 321.642 43.2909C320.891 43.7246 320.128 44.0788 319.358 44.3493C319.358 44.3573 319.366 44.3613 319.358 44.3493C319.358 44.3493 316.021 50.819 304.967 52.5259C307.374 50.5882 309.841 47.4727 311.505 44.4289L311.509 44.4249Z" fill="white"/>
<path d="M203.495 39.123C204.015 38.8228 204.53 38.5285 205.051 38.2283C205.01 38.3814 204.968 38.5344 204.927 38.6875C204.82 39.0936 205.448 39.2643 205.555 38.8582C205.655 38.4932 205.75 38.1283 205.85 37.7692C206.336 37.4926 206.821 37.21 207.313 36.9334C207.165 37.4926 207.011 38.0518 206.863 38.6168C206.756 39.023 207.384 39.1937 207.49 38.7875C207.697 38.0164 207.905 37.2454 208.112 36.4743C208.597 36.1976 209.083 35.9151 209.574 35.6384C209.266 36.7862 208.952 37.9399 208.645 39.0877C208.538 39.4939 209.165 39.6646 209.272 39.2584C209.639 37.8987 210.006 36.539 210.373 35.1734C210.858 34.8968 211.344 34.6143 211.835 34.3376C211.397 35.9681 210.953 37.6044 210.515 39.2349C210.409 39.641 211.036 39.8117 211.143 39.4056C211.64 37.5632 212.137 35.7208 212.634 33.8785C213.031 33.6489 213.422 33.4253 213.818 33.1957C214.055 33.3841 214.392 33.5018 214.659 33.6548C215.328 34.0433 216.003 34.4259 216.671 34.8144V36.1976C215.316 37.5456 213.96 38.8935 212.605 40.2414C212.309 40.5357 212.77 40.9948 213.066 40.7005C214.268 39.5056 215.47 38.3108 216.671 37.1159V38.7934C215.671 39.7882 214.671 40.7829 213.67 41.7777C213.374 42.072 213.836 42.5311 214.132 42.2368C214.978 41.3951 215.825 40.5534 216.677 39.7058V41.3833C216.109 41.9484 215.547 42.5076 214.978 43.0726C214.682 43.3669 215.144 43.8261 215.44 43.5318C215.855 43.1197 216.269 42.7077 216.677 42.3016V43.9791C216.411 44.244 216.145 44.5089 215.872 44.7796C215.576 45.0739 216.038 45.533 216.334 45.2387C216.447 45.1269 216.559 45.0151 216.677 44.8973V46.6867C216.677 47.1046 217.329 47.1046 217.329 46.6867V44.8973C217.441 45.0092 217.553 45.121 217.672 45.2387C217.968 45.533 218.43 45.0739 218.134 44.7796C217.867 44.5147 217.601 44.2499 217.329 43.9791V42.3016C217.743 42.7136 218.157 43.1256 218.566 43.5318C218.862 43.8261 219.323 43.3669 219.027 43.0726C218.459 42.5076 217.897 41.9484 217.329 41.3833V39.7058C218.175 40.5475 219.022 41.3892 219.874 42.2368C220.17 42.5311 220.632 42.072 220.336 41.7777C219.335 40.7829 218.335 39.7882 217.334 38.7934V37.1159C218.536 38.3108 219.738 39.5056 220.939 40.7005C221.235 40.9948 221.697 40.5357 221.401 40.2414C220.046 38.8935 218.69 37.5456 217.334 36.1976V34.8144C217.844 34.5201 218.353 34.2258 218.868 33.9373C219.252 33.7137 219.643 33.4959 220.028 33.2722C220.069 33.2487 220.128 33.2192 220.182 33.1957C220.578 33.4253 220.981 33.6548 221.378 33.8844C221.875 35.7267 222.372 37.5691 222.869 39.4115C222.976 39.8117 223.609 39.641 223.497 39.2408C223.059 37.6103 222.615 35.974 222.177 34.3435C222.662 34.6201 223.147 34.9027 223.639 35.1793C224.006 36.539 224.373 37.8987 224.74 39.2643C224.846 39.6646 225.48 39.4939 225.367 39.0936C225.059 37.9458 224.746 36.7921 224.438 35.6443C224.923 35.921 225.409 36.2035 225.9 36.4802C226.107 37.2512 226.314 38.0223 226.522 38.7934C226.628 39.1937 227.262 39.023 227.149 38.6227C226.995 38.0635 226.847 37.5044 226.693 36.9393C227.179 37.2159 227.664 37.4985 228.155 37.7751C228.256 38.1401 228.351 38.505 228.451 38.864C228.558 39.2702 229.191 39.0936 229.079 38.6934C229.037 38.5403 228.996 38.3873 228.955 38.2342C229.475 38.5344 229.99 38.8287 230.511 39.1289C230.878 39.3408 231.204 38.7758 230.843 38.5697C230.322 38.2696 229.801 37.9752 229.286 37.675C229.44 37.6338 229.6 37.5926 229.754 37.5514C230.156 37.4455 229.985 36.8157 229.582 36.9275C229.215 37.0217 228.854 37.1218 228.487 37.2159C228.002 36.9393 227.516 36.6567 227.025 36.3801C227.587 36.2271 228.155 36.0799 228.718 35.9269C229.12 35.8209 228.949 35.1911 228.546 35.3029C227.771 35.509 227.001 35.715 226.226 35.921C225.74 35.6443 225.255 35.3618 224.764 35.0851C225.924 34.7791 227.078 34.4671 228.238 34.161C228.641 34.0551 228.469 33.4253 228.067 33.5371C226.699 33.902 225.332 34.267 223.964 34.6319C223.479 34.3553 222.994 34.0727 222.502 33.7961C224.148 33.3605 225.788 32.9191 227.433 32.4835C227.836 32.3775 227.664 31.7477 227.262 31.8595C225.409 32.354 223.562 32.8484 221.709 33.337C221.312 33.1074 220.916 32.8778 220.513 32.6542C220.513 32.5718 220.501 32.4952 220.501 32.4364V29.3933C220.904 29.1637 221.306 28.9341 221.709 28.6987C223.562 29.1931 225.409 29.6876 227.262 30.1761C227.67 30.2821 227.842 29.6581 227.433 29.5522C225.788 29.1166 224.148 28.6751 222.502 28.2396C222.988 27.9629 223.473 27.6804 223.964 27.4037C225.332 27.7687 226.699 28.1336 228.067 28.4986C228.475 28.6045 228.647 27.9806 228.238 27.8746C227.078 27.5685 225.924 27.2566 224.764 26.9505C225.249 26.6739 225.734 26.3913 226.226 26.1147C227.001 26.3207 227.771 26.5267 228.546 26.7327C228.955 26.8387 229.126 26.2147 228.718 26.1088C228.155 25.9557 227.587 25.8086 227.025 25.6556C227.51 25.3789 227.996 25.0964 228.487 24.8197C228.854 24.9139 229.215 25.014 229.582 25.114C229.99 25.22 230.162 24.596 229.754 24.4901C229.6 24.4489 229.44 24.4077 229.286 24.3665C229.807 24.0663 230.328 23.772 230.843 23.4718C231.204 23.2658 230.878 22.7007 230.511 22.9126C229.99 23.2128 229.475 23.5071 228.955 23.8073C228.996 23.6543 229.037 23.5012 229.079 23.3482C229.185 22.942 228.558 22.7713 228.451 23.1775C228.351 23.5424 228.256 23.9074 228.155 24.2723C227.67 24.549 227.185 24.8315 226.693 25.1081C226.847 24.549 226.995 23.9898 227.149 23.4247C227.256 23.0186 226.628 22.8479 226.522 23.254C226.314 24.0251 226.107 24.7962 225.9 25.5673C225.415 25.8439 224.929 26.1264 224.438 26.4031C224.746 25.2553 225.059 24.1016 225.367 22.9538C225.474 22.5477 224.846 22.377 224.74 22.7831C224.373 24.1428 224.006 25.5025 223.639 26.8681C223.153 27.1447 222.668 27.4273 222.177 27.7039C222.615 26.0735 223.059 24.4371 223.497 22.8067C223.603 22.4005 222.976 22.2298 222.869 22.636C222.372 24.4783 221.875 26.3207 221.378 28.163C220.975 28.3926 220.572 28.6222 220.17 28.8576C219.223 28.3161 218.276 27.7687 217.334 27.2272V25.8439C218.69 24.496 220.046 23.1481 221.401 21.8001C221.697 21.5058 221.235 21.0467 220.939 21.341C219.738 22.5359 218.536 23.7308 217.334 24.9257V23.2481C218.335 22.2534 219.335 21.2586 220.336 20.2638C220.632 19.9695 220.17 19.5104 219.874 19.8047C219.027 20.6464 218.181 21.4882 217.329 22.3358V20.6582C217.897 20.0932 218.459 19.534 219.027 18.9689C219.323 18.6746 218.862 18.2155 218.566 18.5098C218.151 18.9218 217.737 19.3338 217.329 19.74V18.0624C217.595 17.7976 217.861 17.5327 218.134 17.2619C218.43 16.9676 217.968 16.5085 217.672 16.8028C217.559 16.9146 217.447 17.0265 217.329 17.1442V15.3136C217.329 14.8957 216.677 14.8957 216.677 15.3136V17.103C216.565 16.9912 216.452 16.8793 216.334 16.7616C216.038 16.4673 215.576 16.9264 215.872 17.2207C216.139 17.4856 216.405 17.7505 216.677 18.0212V19.6988C216.263 19.2867 215.849 18.8747 215.44 18.4686C215.144 18.1743 214.682 18.6334 214.978 18.9277C215.547 19.4928 216.109 20.0519 216.677 20.617V22.2946L214.132 19.7635C213.836 19.4692 213.374 19.9283 213.67 20.2226C214.671 21.2174 215.671 22.2122 216.671 23.2069V24.8845C215.47 23.6896 214.268 22.4947 213.066 21.2998C212.77 21.0055 212.309 21.4646 212.605 21.7589C213.96 23.1069 215.316 24.4548 216.671 25.8027V27.1859C215.884 27.6392 215.097 28.0865 214.31 28.5398C214.179 28.6163 213.972 28.6987 213.8 28.7988C213.41 28.5751 213.019 28.3514 212.628 28.1218C212.131 26.2795 211.634 24.4371 211.137 22.5948C211.03 22.1886 210.397 22.3652 210.509 22.7655C210.947 24.3959 211.391 26.0323 211.829 27.6627C211.344 27.3861 210.858 27.1035 210.367 26.8269C210 25.4672 209.633 24.1075 209.266 22.7419C209.16 22.3417 208.526 22.5124 208.639 22.9126C208.946 24.0604 209.26 25.2141 209.568 26.3619C209.083 26.0852 208.597 25.8027 208.106 25.5261C207.899 24.755 207.691 23.9839 207.484 23.2128C207.378 22.8125 206.744 22.9832 206.857 23.3835C207.005 23.9427 207.159 24.5019 207.307 25.0669C206.821 24.7903 206.336 24.5078 205.845 24.2311C205.744 23.8662 205.649 23.5012 205.549 23.1363C205.442 22.736 204.809 22.9067 204.921 23.307C204.963 23.46 205.004 23.6131 205.045 23.7661C204.525 23.4659 204.01 23.1716 203.489 22.8714C203.122 22.6595 202.796 23.2246 203.157 23.4306C203.678 23.7308 204.199 24.0251 204.714 24.3253C204.56 24.3665 204.4 24.4077 204.246 24.4489C203.838 24.5548 204.015 25.1847 204.418 25.0728C204.785 24.9786 205.146 24.8786 205.513 24.7785C205.998 25.0552 206.484 25.3377 206.975 25.6144C206.413 25.7674 205.845 25.9145 205.282 26.0676C204.88 26.1735 205.051 26.8034 205.454 26.6915C206.229 26.4855 206.999 26.2795 207.774 26.0735C208.26 26.3501 208.745 26.6327 209.236 26.9093C208.076 27.2154 206.922 27.5273 205.762 27.8334C205.359 27.9394 205.531 28.5692 205.933 28.4574C207.301 28.0924 208.668 27.7275 210.036 27.3625C210.521 27.6392 211.006 27.9217 211.498 28.1984C209.852 28.6339 208.212 29.0754 206.567 29.511C206.164 29.6169 206.336 30.2467 206.738 30.1349C208.591 29.6405 210.444 29.146 212.291 28.6575C212.688 28.887 213.09 29.1166 213.487 29.3462C213.487 29.4345 213.499 29.5227 213.499 29.6052C213.499 30.6058 213.487 31.6064 213.499 32.6071C213.096 32.8366 212.694 33.0662 212.291 33.3016C210.438 32.8072 208.591 32.3128 206.738 31.8242C206.33 31.7183 206.158 32.3422 206.567 32.4482C208.212 32.8837 209.852 33.3252 211.498 33.7608C211.012 34.0374 210.527 34.32 210.036 34.5966C208.668 34.2317 207.301 33.8667 205.933 33.5018C205.525 33.3958 205.353 34.0198 205.762 34.1257C206.922 34.4318 208.076 34.7438 209.236 35.0498C208.751 35.3265 208.266 35.609 207.774 35.8857C206.999 35.6796 206.229 35.4736 205.454 35.2676C205.045 35.1617 204.874 35.7856 205.282 35.8916C205.845 36.0446 206.413 36.1917 206.975 36.3448C206.49 36.6214 206.004 36.904 205.513 37.1806C205.146 37.0864 204.785 36.9864 204.418 36.8922C204.01 36.7862 203.838 37.4102 204.246 37.5161C204.4 37.5573 204.56 37.5985 204.714 37.6397C204.193 37.9399 203.672 38.2342 203.157 38.5344C202.796 38.7404 203.122 39.3055 203.489 39.0936L203.495 39.123ZM214.019 29.6699C214.327 29.8465 214.635 30.0231 214.949 30.1997V31.8007C214.647 31.9714 214.345 32.148 214.043 32.3187C214.031 32.0832 213.996 31.8301 213.996 31.683V30.1408C213.996 30.0937 214.014 29.8818 214.025 29.6699H214.019ZM216.666 27.7451V28.84L215.274 29.6405C214.955 29.458 214.641 29.2755 214.321 29.0931C214.357 29.0695 214.387 29.0519 214.422 29.0342C215.168 28.6045 215.92 28.1748 216.666 27.7451ZM219.667 29.0931C219.347 29.2755 219.027 29.458 218.714 29.6405L217.323 28.84V27.7746C217.595 27.9394 217.903 28.0748 218.169 28.2278C218.672 28.5162 219.175 28.8046 219.673 29.0931H219.667ZM219.963 32.3304C219.655 32.1539 219.347 31.9773 219.039 31.8007V30.1997C219.359 30.0172 219.679 29.8347 219.992 29.6522V31.8595C219.992 31.9125 219.975 32.1185 219.963 32.3304ZM217.317 34.2022V33.1604L218.708 32.3599C219.022 32.5423 219.341 32.7248 219.655 32.9073C219.548 32.972 219.442 33.0368 219.329 33.1015C218.885 33.3546 218.436 33.6136 217.992 33.8667C217.82 33.9668 217.542 34.0727 217.311 34.2022H217.317ZM214.315 32.9132C214.635 32.7307 214.955 32.5482 215.269 32.3658L216.66 33.1663V34.2611C216.287 34.0492 215.914 33.8314 215.541 33.6195C215.132 33.3841 214.718 33.1486 214.31 32.9132H214.315Z" fill="white"/>
<path d="M174.215 12.4369C175.438 12.4369 176.429 11.4437 176.429 10.2185C176.429 8.99337 175.438 8.00017 174.215 8.00017C172.992 8.00017 172 8.99337 172 10.2185C172 11.4437 172.992 12.4369 174.215 12.4369Z" fill="white"/>
<path d="M174.598 39.3029C174.598 40.5749 173.569 41.6057 172.299 41.6057C171.029 41.6057 170 40.5749 170 39.3029C170 38.031 171.029 37.0002 172.299 37.0002C173.569 37.0002 174.598 38.031 174.598 39.3029Z" fill="white"/>
<path d="M314.01 21.3435C315.867 21.3435 317.373 19.8352 317.373 17.9746C317.373 16.114 315.867 14.6057 314.01 14.6057C312.152 14.6057 310.646 16.114 310.646 17.9746C310.646 19.8352 312.152 21.3435 314.01 21.3435Z" fill="white"/>
<path d="M35.6505 20.5652C34.5901 20.2322 33.9976 19.0998 34.3292 18.0383C34.6608 16.9768 35.7911 16.3844 36.8515 16.7175C37.9119 17.0505 38.5044 18.1829 38.1728 19.2444C37.8412 20.3059 36.7109 20.8983 35.6505 20.5652Z" fill="white"/>
<path d="M42.2931 52.4979C41.2327 52.1649 40.6401 51.0325 40.9718 49.971C41.3034 48.9095 42.4336 48.3171 43.494 48.6502C44.5544 48.9832 45.147 50.1156 44.8154 51.1771C44.4838 52.2386 43.3535 52.8309 42.2931 52.4979Z" fill="white"/>
<path d="M20.923 44.0365C19.8626 43.7035 19.27 42.5711 19.6016 41.5096C19.9333 40.4481 21.0635 39.8558 22.1239 40.1888C23.1843 40.5218 23.7769 41.6542 23.4453 42.7157C23.1137 43.7772 21.9834 44.3696 20.923 44.0365Z" fill="white"/>
<path d="M46.5841 30.2362C45.5237 29.9032 44.9312 28.7708 45.2628 27.7093C45.5944 26.6478 46.7247 26.0555 47.7851 26.3885C48.8455 26.7215 49.438 27.8539 49.1064 28.9154C48.7748 29.9769 47.6445 30.5692 46.5841 30.2362Z" fill="white"/>
<path d="M43.3429 50.3339C38.526 38.9787 30.3228 28.0469 20.5114 20.617C16.1109 17.2856 11.1998 14.6891 5.89968 13.1293C5.2576 12.9421 4.95181 13.9311 5.59389 14.1182C17.0734 17.4981 26.2546 25.8015 33.2595 35.2669C36.8034 40.0595 40.0912 45.3109 42.4261 50.8183C42.6871 51.4321 43.6039 50.9477 43.3394 50.3399L43.3429 50.3339Z" fill="white"/>
<path d="M19.0118 20.4533C24.1328 18.1507 30.8049 16.7838 36.0982 19.1303C36.7073 19.4022 37.007 18.41 36.4038 18.1415C30.8573 15.6807 23.8774 17.1252 18.5273 19.535C17.9172 19.8053 18.4017 20.7236 19.0058 20.4499L19.0118 20.4533Z" fill="white"/>
<path d="M29.9395 30.1207C35.0605 27.8181 41.7326 26.4511 47.0259 28.7976C47.635 29.0696 47.9348 28.0773 47.3316 27.8088C41.7851 25.348 34.8051 26.7926 29.455 29.2024C28.845 29.4726 29.3295 30.391 29.9336 30.1172L29.9395 30.1207Z" fill="white"/>
<path d="M55.4513 42.7907C54.3909 42.4576 53.7983 41.3253 54.13 40.2638C54.4616 39.2022 55.5918 38.6099 56.6522 38.9429C57.7126 39.276 58.3052 40.4083 57.9736 41.4699C57.642 42.5314 56.5117 43.1237 55.4513 42.7907Z" fill="white"/>
<path d="M38.8085 42.6848C43.9294 40.3822 50.6016 39.0153 55.8949 41.3617C56.504 41.6337 56.8037 40.6414 56.2005 40.3729C50.654 37.9121 43.6741 39.3567 38.324 41.7665C37.7199 42.0402 38.1984 42.9551 38.8025 42.6814L38.8085 42.6848Z" fill="white"/>
<path d="M23.2268 24.023C20.0628 29.1065 17.3079 36.9159 21.0599 42.3544C21.4333 42.8972 22.3523 42.4224 21.9729 41.8762C18.4375 36.7543 21.1079 29.3828 24.091 24.5859C24.4398 24.0213 23.5756 23.4584 23.2174 24.0256L23.2268 24.023Z" fill="white"/>
<path d="M32.0724 56.313C31.012 55.9799 30.4194 54.8476 30.751 53.7861C31.0827 52.7245 32.2129 52.1322 33.2733 52.4652C34.3337 52.7983 34.9263 53.9306 34.5947 54.9921C34.2631 56.0537 33.1328 56.646 32.0724 56.313Z" fill="white"/>
<path d="M34.3762 36.2994C31.2123 41.3829 28.4573 49.1924 32.2093 54.6308C32.5827 55.1736 33.5017 54.6989 33.1223 54.1526C29.5869 49.0307 32.2573 41.6592 35.2404 36.8623C35.5892 36.2977 34.725 35.7348 34.3668 36.302L34.3762 36.2994Z" fill="white"/>
<path d="M331.503 90.2553C331.503 91.5005 330.494 92.5105 329.251 92.5105C328.008 92.5105 327 91.5005 327 90.2553C327 89.0101 328.008 88.0002 329.251 88.0002C330.494 88.0002 331.503 89.0101 331.503 90.2553Z" fill="white"/>
<path d="M74.2613 35.6639C74.5652 35.7539 74.8622 35.8438 75.166 35.9337C75.021 36.0098 74.8829 36.0859 74.7378 36.162C74.289 36.4041 74.6895 37.0821 75.1315 36.8399C75.4975 36.6462 75.8635 36.4456 76.2295 36.2519C76.7889 36.418 77.3483 36.5909 77.9077 36.7569C77.3621 37.0544 76.8096 37.3519 76.2641 37.6424C75.8152 37.8845 76.2157 38.5624 76.6577 38.3203C77.4312 37.9053 78.1977 37.4902 78.9712 37.0751C79.5306 37.2412 80.09 37.4141 80.6494 37.5801C79.6342 38.1266 78.619 38.68 77.5969 39.2265C77.148 39.4687 77.5486 40.1466 77.9906 39.9045C79.2267 39.2335 80.4698 38.5694 81.706 37.8983C82.2654 38.0644 82.8247 38.2373 83.3841 38.4033C81.8372 39.2404 80.2903 40.0705 78.7433 40.9075C78.2944 41.1497 78.695 41.8276 79.137 41.5855C80.9049 40.6308 82.6728 39.6762 84.4477 38.7216C84.496 38.7354 84.5443 38.7492 84.5996 38.77C84.6134 38.7769 84.6272 38.7907 84.6341 38.7976C85.8012 39.4202 86.9752 40.0359 88.1424 40.6585C87.2722 41.627 86.402 42.5885 85.525 43.557C85.5181 43.557 85.5043 43.557 85.4974 43.5708C85.4836 43.5778 85.4697 43.5847 85.4559 43.5916C84.2267 43.2388 82.9974 42.886 81.7612 42.5401C81.2709 42.4018 81.0637 43.1627 81.554 43.3011C82.5278 43.5778 83.5084 43.8614 84.4822 44.1381C84.2681 44.2557 84.054 44.3733 83.8399 44.4978C82.9836 44.2557 82.1272 44.0067 81.264 43.7645C80.7737 43.6262 80.5665 44.3871 81.0568 44.5255C81.6576 44.6984 82.2654 44.8714 82.8662 45.0443C82.6521 45.1619 82.438 45.2795 82.2239 45.404C81.6991 45.2519 81.1673 45.0997 80.6425 44.9544C80.1521 44.816 79.945 45.577 80.4353 45.7153C80.7115 45.7914 80.9809 45.8744 81.2571 45.9505C80.8496 46.1788 80.4422 46.4071 80.0347 46.6354C79.5928 46.8844 79.9864 47.5624 80.4284 47.3133C80.8289 47.085 81.2364 46.8637 81.6369 46.6354C81.561 46.9121 81.4781 47.1888 81.4021 47.4655C81.264 47.9567 82.0237 48.1642 82.1618 47.673C82.3137 47.1473 82.4587 46.6216 82.6107 46.0958C82.8248 45.9782 83.0388 45.8606 83.2529 45.7361C83.0803 46.3448 82.9076 46.9467 82.735 47.5554C82.5969 48.0466 83.3565 48.2541 83.4946 47.763C83.7363 46.9052 83.985 46.0474 84.2267 45.1896C84.4408 45.072 84.6548 44.9544 84.8689 44.8299C84.5927 45.8122 84.3095 46.7876 84.0333 47.7699C83.8952 48.261 84.6548 48.4686 84.793 47.9774C85.1452 46.7461 85.4905 45.5147 85.8427 44.2834C85.8634 44.2765 85.8772 44.2626 85.8979 44.2557C85.9048 44.2557 85.9117 44.2419 85.9186 44.2419C87.1893 43.9721 88.46 43.6954 89.7307 43.4256C89.6824 44.6846 89.634 45.9505 89.5926 47.2096C89.5788 47.2303 89.5719 47.2511 89.5581 47.2718C89.5443 47.3133 89.5236 47.3548 89.5097 47.3894C87.6451 48.1919 85.7736 48.9874 83.909 49.7899C83.4463 49.9905 83.8468 50.6684 84.3026 50.4678C85.8979 49.7829 87.5001 49.0981 89.0954 48.4132C88.8744 48.9597 88.6603 49.5062 88.4393 50.0527C87.1272 50.6131 85.815 51.1803 84.5029 51.7406C84.0402 51.9412 84.4408 52.6192 84.8965 52.4186C85.9393 51.9689 86.9822 51.5262 88.0319 51.0765C87.8109 51.623 87.5968 52.1695 87.3758 52.716C86.554 53.0688 85.7253 53.4216 84.9035 53.7744C84.4408 53.975 84.8413 54.653 85.2971 54.4524C85.8496 54.2172 86.409 53.975 86.9614 53.7398C86.7404 54.2863 86.5264 54.8328 86.3054 55.3793C85.9048 55.5523 85.5043 55.7252 85.1037 55.8912C84.9104 55.9743 84.862 56.2648 84.9656 56.4308C85.083 56.6314 85.304 56.6591 85.5043 56.5692C85.6355 56.5138 85.7667 56.4585 85.8979 56.4032C85.7736 56.7145 85.6493 57.0258 85.525 57.337C85.3385 57.8074 86.0982 58.0081 86.2846 57.5446C86.3951 57.2609 86.5125 56.9773 86.623 56.6937C86.6921 56.8528 86.7612 57.0188 86.8302 57.1779C86.9131 57.3716 87.2031 57.4201 87.3689 57.3163C87.5692 57.1987 87.5968 56.9773 87.507 56.7767C87.3482 56.4032 87.1893 56.0365 87.0305 55.663C87.2515 55.1165 87.4656 54.57 87.6866 54.0235C87.9352 54.6115 88.1907 55.1926 88.4393 55.7806C88.6396 56.2441 89.3164 55.8428 89.1161 55.3863C88.7777 54.5907 88.4393 53.7952 88.094 52.9997C88.315 52.4532 88.5291 51.9067 88.7501 51.3602C89.2128 52.4393 89.6686 53.5116 90.1313 54.5907C90.3316 55.0542 91.0083 54.653 90.8081 54.1964C90.2625 52.9097 89.71 51.623 89.1575 50.3433C89.3785 49.7968 89.5926 49.2503 89.8136 48.7038C90.5111 50.3363 91.2086 51.962 91.9061 53.5946C92.1064 54.0581 92.7832 53.6568 92.5829 53.2003C91.7956 51.3602 91.0152 49.527 90.228 47.6869L90.2418 47.673C91.0636 46.6146 91.8785 45.5631 92.7003 44.5047C93.5221 45.5631 94.337 46.6146 95.1588 47.673C95.1588 47.673 95.1657 47.68 95.1726 47.6869C94.3854 49.527 93.605 51.3602 92.8177 53.2003C92.6174 53.6637 93.3011 54.065 93.4945 53.5946C94.192 51.962 94.8895 50.3363 95.587 48.7038C95.808 49.2503 96.0221 49.7968 96.2431 50.3433C95.6906 51.63 95.145 52.9166 94.5925 54.1964C94.3923 54.6599 95.076 55.0611 95.2693 54.5907C95.732 53.5116 96.1878 52.4393 96.6505 51.3602C96.8715 51.9067 97.0856 52.4532 97.3066 52.9997C96.9682 53.7952 96.6298 54.5907 96.2845 55.3863C96.0842 55.8497 96.7679 56.251 96.9613 55.7806C97.2099 55.1926 97.4654 54.6046 97.714 54.0235C97.935 54.57 98.1491 55.1165 98.3701 55.663C98.2113 56.0365 98.0524 56.4032 97.8936 56.7767C97.8107 56.9704 97.8314 57.1987 98.0317 57.3163C98.1975 57.4131 98.4875 57.3716 98.5704 57.1779L98.7776 56.6937C98.8881 56.9773 99.0055 57.2609 99.116 57.5446C99.3024 58.0081 100.062 57.8074 99.8756 57.337C99.7513 57.0258 99.627 56.7145 99.5027 56.4032C99.6339 56.4585 99.7651 56.5138 99.8963 56.5692C100.09 56.6522 100.318 56.6314 100.435 56.4308C100.532 56.2648 100.49 55.9743 100.297 55.8912C99.8963 55.7183 99.4958 55.5454 99.0952 55.3793C98.8743 54.8328 98.6602 54.2863 98.4392 53.7398C98.9917 53.975 99.551 54.2172 100.104 54.4524C100.566 54.653 100.967 53.9681 100.497 53.7744C99.6753 53.4216 98.8466 53.0688 98.0248 52.716C97.8038 52.1695 97.5897 51.623 97.3687 51.0765C98.4116 51.5262 99.4544 51.9689 100.504 52.4186C100.967 52.6123 101.367 51.9343 100.898 51.7406C99.5856 51.1803 98.2734 50.6131 96.9613 50.0527C96.7403 49.5062 96.5262 48.9597 96.3052 48.4132C97.9005 49.0981 99.5027 49.7829 101.098 50.4678C101.561 50.6684 101.961 49.9835 101.492 49.7899C99.627 48.9874 97.7555 48.1919 95.8909 47.3894C95.8771 47.3479 95.8563 47.3064 95.8425 47.2718C95.8356 47.2511 95.8218 47.2372 95.8149 47.2165C95.7666 45.9505 95.7182 44.6915 95.6768 43.4256C96.8784 43.6815 98.0801 43.9444 99.2817 44.2004C99.3024 44.2211 99.33 44.2419 99.3646 44.2626C99.3853 44.2695 99.3991 44.2834 99.4198 44.2903C99.772 45.5216 100.117 46.753 100.47 47.9843C100.608 48.4686 101.367 48.261 101.229 47.7768C100.953 46.7945 100.67 45.8191 100.394 44.8368C100.608 44.9544 100.822 45.072 101.036 45.1965C101.278 46.0543 101.526 46.9121 101.768 47.7699C101.906 48.2541 102.666 48.0466 102.528 47.5624C102.355 46.9536 102.182 46.3518 102.01 45.743C102.224 45.8606 102.438 45.9782 102.652 46.1027C102.804 46.6285 102.949 47.1542 103.101 47.68C103.239 48.1642 103.998 47.9567 103.86 47.4724C103.784 47.1957 103.702 46.919 103.626 46.6423C104.026 46.8706 104.434 47.0919 104.834 47.3202C105.276 47.5693 105.67 46.8844 105.228 46.6423C104.82 46.414 104.413 46.1857 104.005 45.9574C104.282 45.8814 104.551 45.7983 104.827 45.7222C105.311 45.5839 105.103 44.823 104.62 44.9613C104.095 45.1135 103.563 45.2657 103.039 45.411C102.824 45.2934 102.61 45.1757 102.396 45.0512C102.997 44.8783 103.605 44.7053 104.206 44.5324C104.689 44.3941 104.482 43.6331 103.998 43.7715C103.142 44.0136 102.286 44.2626 101.423 44.5047C101.208 44.3871 100.994 44.2695 100.78 44.145C101.754 43.8683 102.735 43.5847 103.708 43.308C104.192 43.1696 103.985 42.4087 103.501 42.547C102.3 42.8929 101.098 43.2319 99.8963 43.5778C99.0193 42.6093 98.1491 41.6408 97.2721 40.6723C98.3563 40.0982 99.4405 39.524 100.525 38.9498C100.566 38.9498 100.608 38.9498 100.649 38.936C100.704 38.9222 100.766 38.9014 100.822 38.8807C102.59 39.8353 104.358 40.7899 106.132 41.7446C106.581 41.9867 106.975 41.3018 106.526 41.0666C104.979 40.2296 103.432 39.3995 101.885 38.5625C102.445 38.3964 103.004 38.2235 103.563 38.0575C104.8 38.7285 106.043 39.3926 107.279 40.0636C107.728 40.3057 108.121 39.6208 107.672 39.3856C106.657 38.8391 105.642 38.2857 104.62 37.7392C105.179 37.5732 105.739 37.4003 106.298 37.2342C107.072 37.6493 107.838 38.0644 108.612 38.4794C109.061 38.7215 109.454 38.0367 109.005 37.8015C108.46 37.504 107.907 37.2066 107.362 36.916C107.921 36.75 108.48 36.5771 109.04 36.411C109.406 36.6047 109.772 36.8054 110.138 36.999C110.587 37.2412 110.98 36.5563 110.532 36.3211C110.387 36.245 110.248 36.1689 110.103 36.0928C110.407 36.0029 110.704 35.913 111.008 35.823C111.491 35.6778 111.284 34.9168 110.801 35.0621C110.497 35.152 110.186 35.2489 109.882 35.3388C109.958 35.2005 110.027 35.069 110.103 34.9307C110.345 34.481 109.668 34.0867 109.427 34.5364C109.226 34.9099 109.026 35.2835 108.826 35.657C108.266 35.823 107.707 35.996 107.148 36.162C107.438 35.6224 107.728 35.0828 108.018 34.5364C108.259 34.0867 107.576 33.6924 107.341 34.142C106.92 34.9237 106.498 35.7054 106.084 36.4802C105.525 36.6462 104.965 36.8192 104.406 36.9852C104.952 35.9752 105.49 34.9653 106.036 33.9553C106.277 33.5056 105.594 33.1113 105.359 33.561C104.689 34.8131 104.012 36.0582 103.342 37.3103C102.783 37.4764 102.224 37.6493 101.664 37.8153C102.493 36.2727 103.322 34.73 104.15 33.1943C104.392 32.7447 103.715 32.3504 103.474 32.8C102.521 34.564 101.574 36.3349 100.621 38.099C99.3231 37.9191 98.0179 37.7392 96.7196 37.5594C97.2099 36.3557 97.6933 35.1589 98.1837 33.9553C99.4129 33.8446 100.635 33.7339 101.865 33.6232C102.362 33.5748 102.369 32.7931 101.865 32.8346C100.842 32.9245 99.8135 33.0214 98.7914 33.1113C98.9502 32.9245 99.1091 32.7308 99.2679 32.5441C100.145 32.468 101.015 32.385 101.892 32.3089C102.389 32.2604 102.396 31.4787 101.892 31.5202C101.25 31.5756 100.615 31.6378 99.9723 31.6932C100.131 31.5064 100.29 31.3127 100.449 31.1259C100.981 31.0775 101.519 31.0291 102.051 30.9807C102.548 30.9322 102.555 30.1505 102.051 30.192C101.754 30.2197 101.457 30.2474 101.16 30.2751C101.45 29.9292 101.74 29.5764 102.03 29.2236C102.355 28.8362 101.795 28.2758 101.478 28.6702C101.174 29.0368 100.863 29.4034 100.559 29.7701C100.532 29.4934 100.511 29.2236 100.483 28.9469C100.435 28.4488 99.6546 28.4419 99.6961 28.9469C99.7444 29.5072 99.7997 30.0606 99.848 30.6209C99.6892 30.8077 99.5303 31.0014 99.3715 31.1882C99.3162 30.5725 99.261 29.9568 99.2057 29.3412C99.1574 28.8431 98.377 28.8362 98.4185 29.3412C98.5013 30.2405 98.5842 31.1398 98.6602 32.0391C98.5013 32.2258 98.3425 32.4195 98.1837 32.6063C98.0939 31.6033 98.0041 30.6002 97.9143 29.5971C97.866 29.0991 97.0856 29.0921 97.127 29.5971C97.2444 30.8838 97.3618 32.1705 97.4792 33.4572C97.4792 33.4572 97.4723 33.4641 97.4654 33.471C97.4447 33.4918 97.4309 33.5195 97.4171 33.5402C96.3743 34.1974 95.3315 34.8476 94.2887 35.5048C93.9089 34.3288 93.529 33.1459 93.1492 31.9699C94.5787 30.6002 96.0083 29.2374 97.4378 27.8677C97.8038 27.5149 97.2444 26.9615 96.8853 27.3143C95.6215 28.5249 94.3577 29.7355 93.0939 30.9461C93.1078 30.3581 93.1216 29.777 93.1354 29.189C94.1575 28.2067 95.1796 27.2313 96.2016 26.249C96.5677 25.8962 96.0083 25.3427 95.6492 25.6956C94.8204 26.4911 93.9917 27.2797 93.163 28.0752C93.1768 27.4872 93.1906 26.9061 93.2044 26.3181C93.8398 25.7094 94.482 25.0937 95.1174 24.485C95.4834 24.1322 94.924 23.5787 94.5649 23.9315C94.1229 24.3604 93.674 24.7824 93.2321 25.2113C93.2459 24.6233 93.2597 24.0422 93.2735 23.4542C93.5774 23.1637 93.8812 22.8662 94.192 22.5757C94.558 22.2229 93.9986 21.6695 93.6395 22.0223C93.529 22.126 93.4185 22.2367 93.3011 22.3405C93.308 22.0223 93.3149 21.6971 93.3218 21.3789C93.3357 20.8739 92.5484 20.8739 92.5346 21.3789C92.5277 21.6902 92.5208 22.0084 92.5138 22.3197C92.4033 22.2021 92.2929 22.0845 92.1824 21.9738C91.8302 21.6072 91.2777 22.1606 91.6299 22.5272C91.9199 22.8316 92.2031 23.1291 92.4931 23.4335C92.4793 24.0215 92.4655 24.6026 92.4517 25.1906C92.0235 24.7409 91.5953 24.2913 91.1672 23.8416C90.815 23.475 90.2625 24.0353 90.6147 24.395C91.2224 25.0314 91.8232 25.6679 92.431 26.3043C92.4172 26.8923 92.4033 27.4734 92.3895 28.0614C91.5953 27.2244 90.7943 26.3942 90.0001 25.5572C89.6479 25.1906 89.0954 25.7509 89.4476 26.1106C90.4213 27.1344 91.3951 28.1513 92.3688 29.1751C92.355 29.7631 92.3412 30.3442 92.3274 30.9322C91.1119 29.6594 89.9034 28.3865 88.6879 27.1206C88.3357 26.754 87.7832 27.3143 88.1355 27.674C89.5166 29.1198 90.8909 30.5656 92.2721 32.0114C91.8992 33.1805 91.5194 34.3496 91.1465 35.5117C90.0484 34.82 88.9504 34.1282 87.8454 33.4364C87.9628 32.1567 88.0733 30.8769 88.1907 29.5971C88.239 29.0921 87.4518 29.0991 87.4034 29.5971C87.3136 30.6002 87.2239 31.6033 87.1341 32.6063C86.9752 32.4195 86.8164 32.2258 86.6576 32.0391C86.7404 31.1398 86.8233 30.2405 86.8993 29.3412C86.9476 28.8362 86.1603 28.8431 86.112 29.3412C86.0568 29.9568 86.0015 30.5725 85.9463 31.1882C85.7874 31.0014 85.6286 30.8077 85.4697 30.6209C85.5181 30.0606 85.5733 29.5072 85.6217 28.9469C85.67 28.4419 84.8827 28.4488 84.8344 28.9469C84.8068 29.2236 84.786 29.4934 84.7584 29.7701C84.4546 29.4034 84.1438 29.0368 83.8399 28.6702C83.5153 28.2828 82.9629 28.8431 83.2875 29.2236C83.5775 29.5764 83.8676 29.9223 84.1576 30.2751C83.8606 30.2474 83.5637 30.2197 83.2667 30.192C82.7626 30.1436 82.7695 30.9322 83.2667 30.9807C83.7985 31.0291 84.3372 31.0775 84.8689 31.1259C85.0278 31.3127 85.1866 31.5064 85.3454 31.6932C84.7032 31.6378 84.0678 31.5756 83.4256 31.5202C82.9214 31.4718 82.9283 32.2604 83.4256 32.3089C84.3026 32.385 85.1728 32.468 86.0498 32.5441C86.2087 32.7308 86.3675 32.9245 86.5264 33.1113C85.5043 33.0214 84.4753 32.9245 83.4532 32.8346C82.9491 32.7862 82.956 33.5748 83.4532 33.6232C84.717 33.7408 85.9739 33.8515 87.2377 33.9691C87.2446 33.9829 87.2584 33.9968 87.2653 34.0037C87.7487 35.1866 88.2252 36.3765 88.7086 37.5594C87.4449 37.7323 86.1811 37.9122 84.9173 38.0851C84.8965 38.0713 84.8689 38.0644 84.8413 38.0505C84.786 38.0367 84.7377 38.0159 84.6825 38.0021C83.7225 36.2243 82.7695 34.4395 81.8096 32.6617C81.5679 32.212 80.8911 32.6132 81.1328 33.056C81.9615 34.5986 82.7902 36.1413 83.6189 37.677C83.0596 37.511 82.5002 37.338 81.9408 37.172C81.2709 35.9199 80.5941 34.6747 79.9242 33.4226C79.6825 32.973 79.0057 33.3742 79.2475 33.8169C79.793 34.8269 80.3317 35.8369 80.8773 36.8469C80.3179 36.6808 79.7585 36.5079 79.1991 36.3419C78.7778 35.5602 78.3566 34.7785 77.9422 34.0037C77.7005 33.554 77.0237 33.9553 77.2654 34.398C77.5555 34.9376 77.8455 35.4772 78.1356 36.0237C77.5762 35.8576 77.0168 35.6847 76.4574 35.5187C76.2572 35.1451 76.0569 34.7716 75.8566 34.398C75.6149 33.9484 74.9381 34.3496 75.1798 34.7923C75.2558 34.9237 75.3249 35.0621 75.4008 35.2005C75.097 35.1105 74.7862 35.0137 74.4823 34.9237C73.9989 34.7785 73.7917 35.5394 74.2751 35.6847L74.2613 35.6639ZM94.2887 36.4249C95.2072 35.8438 96.1257 35.2696 97.0442 34.6885C96.6298 35.7054 96.2155 36.7223 95.808 37.7392C95.7389 37.9191 95.8909 38.1958 96.0842 38.2235C97.1754 38.3757 98.2596 38.5279 99.3508 38.6731C98.3908 39.185 97.4309 39.69 96.471 40.2019C96.2362 40.3265 96.2293 40.6378 96.395 40.8176C97.1132 41.6131 97.8315 42.4156 98.5566 43.2111C97.5069 42.9829 96.4572 42.7615 95.4144 42.5332C95.1726 42.4848 94.9102 42.6439 94.9171 42.9137C94.9586 43.9997 95 45.0858 95.0345 46.1719C94.3577 45.3072 93.6879 44.4356 93.0111 43.5708C92.9282 43.4671 92.8315 43.4256 92.7348 43.4394C92.6382 43.4325 92.5415 43.4671 92.4586 43.5708C91.7818 44.4356 91.1119 45.3072 90.4351 46.1719C90.4766 45.0858 90.518 43.9997 90.5525 42.9137C90.5595 42.6439 90.297 42.4848 90.0553 42.5332C89.0056 42.7615 87.9559 42.9829 86.9131 43.2111C87.6313 42.4156 88.3495 41.6131 89.0747 40.8176C89.2335 40.6378 89.2266 40.3265 88.9918 40.2019C88.0319 39.69 87.0719 39.185 86.112 38.6731C87.2031 38.5209 88.2874 38.3688 89.3785 38.2235C89.5719 38.1958 89.7238 37.9191 89.6548 37.7392C89.2404 36.7223 88.826 35.7054 88.4186 34.6885C89.3371 35.2696 90.2556 35.8438 91.1741 36.4249C91.3951 36.5632 91.6782 36.4249 91.7542 36.1897C92.0857 35.1659 92.4172 34.142 92.7417 33.1182C93.0732 34.142 93.3978 35.1659 93.7293 36.1897C93.8053 36.4249 94.0815 36.5632 94.3094 36.4249H94.2887Z" fill="white"/>
<path d="M126.68 18.5712L122.357 20.0239L124.85 16.1984L122.136 12.5251L126.542 13.7219L129.194 10.0002L129.415 14.5658L133.765 15.9425L129.504 17.5612L129.539 22.1338L126.68 18.5712Z" fill="white"/>
<path d="M322.748 331.428C323.022 330.351 324.12 329.696 325.198 329.969C326.276 330.241 326.93 331.337 326.656 332.414C326.382 333.491 325.284 334.145 324.206 333.873C323.128 333.601 322.474 332.505 322.748 331.428Z" fill="white"/>
<path d="M291.231 339.827C291.505 338.749 292.603 338.095 293.681 338.368C294.759 338.64 295.413 339.736 295.14 340.813C294.866 341.89 293.768 342.544 292.69 342.272C291.611 342 290.957 340.904 291.231 339.827Z" fill="white"/>
<path d="M298.497 318.021C298.771 316.943 299.869 316.289 300.947 316.562C302.025 316.834 302.679 317.93 302.405 319.007C302.131 320.084 301.033 320.738 299.955 320.466C298.877 320.194 298.223 319.098 298.497 318.021Z" fill="white"/>
<path d="M313.696 342.879C313.97 341.802 315.068 341.148 316.146 341.42C317.224 341.692 317.878 342.788 317.604 343.865C317.331 344.943 316.233 345.597 315.154 345.325C314.076 345.052 313.422 343.956 313.696 342.879Z" fill="white"/>
<path d="M293.45 340.755C304.521 335.317 314.983 326.522 321.858 316.314C324.941 311.736 327.262 306.689 328.526 301.311C328.678 300.659 327.673 300.408 327.522 301.06C324.782 312.709 317 322.335 307.936 329.853C303.347 333.657 298.285 337.23 292.916 339.866C292.317 340.161 292.852 341.049 293.444 340.752L293.45 340.755Z" fill="white"/>
<path d="M321.939 314.808C324.521 319.794 326.255 326.38 324.205 331.795C323.967 332.418 324.975 332.663 325.209 332.046C327.36 326.371 325.531 319.482 322.829 314.273C322.525 313.679 321.635 314.214 321.942 314.802L321.939 314.808Z" fill="white"/>
<path d="M312.891 326.254C315.474 331.239 317.207 337.826 315.157 343.241C314.92 343.864 315.927 344.108 316.162 343.491C318.312 337.817 316.483 330.928 313.781 325.719C313.478 325.125 312.588 325.66 312.894 326.248L312.891 326.254Z" fill="white"/>
<path d="M301.651 352.427C301.925 351.35 303.023 350.696 304.101 350.968C305.179 351.241 305.833 352.336 305.559 353.413C305.286 354.491 304.188 355.145 303.11 354.873C302.031 354.6 301.377 353.504 301.651 352.427Z" fill="white"/>
<path d="M300.837 335.804C303.419 340.79 305.153 347.376 303.103 352.791C302.865 353.415 303.872 353.659 304.107 353.042C306.257 347.368 304.429 340.478 301.727 335.27C301.42 334.682 300.533 335.21 300.84 335.798L300.837 335.804Z" fill="white"/>
<path d="M318.607 319.214C313.357 316.336 305.407 314.018 300.184 318.065C299.663 318.468 300.188 319.359 300.712 318.95C305.631 315.136 313.139 317.395 318.093 320.108C318.676 320.425 319.19 319.531 318.604 319.205L318.607 319.214Z" fill="white"/>
<path d="M286.856 329.832C287.13 328.755 288.228 328.101 289.306 328.373C290.384 328.645 291.038 329.741 290.765 330.818C290.491 331.896 289.393 332.55 288.315 332.277C287.236 332.005 286.582 330.909 286.856 329.832Z" fill="white"/>
<path d="M306.967 331.026C301.716 328.148 293.766 325.829 288.544 329.876C288.022 330.279 288.547 331.17 289.072 330.761C293.99 326.948 301.498 329.206 306.453 331.92C307.036 332.237 307.55 331.343 306.964 331.016L306.967 331.026Z" fill="white"/>
<path d="M315.16 367.737L316.063 363.266L318.13 367.338L322.668 366.824L319.428 370.042L321.326 374.199L317.261 372.108L313.893 375.187L314.622 370.688L310.645 368.431L315.16 367.737Z" fill="white"/>
<path d="M62.6485 15L61.0262 12.4291L58 13.0262L59.9942 10.7151L58.4788 8.08034L61.333 9.22906L63.4201 7L63.1923 10.0177L66 11.2758L63.0018 11.996L62.6485 15Z" fill="white"/>
</g>
<defs>
<clipPath id="clip0_314_1639">
<rect width="340" height="376" fill="white" transform="translate(0 2)"/>
</clipPath>
</defs>
</svg>
